<svg xmlns="http://www.w3.org/2000/svg" id="Layer_1" x="0" y="0" enable-background="new 0 0 650 700" version="1.1" viewBox="0 0 650 700" xml:space="preserve"><g id="Resume"><path fill="#fff" d="M327.1,112.8v270.1c0,5.2-4.2,9.4-9.4,9.4H91.5c-5.2,0-9.4-4.2-9.4-9.4V112.8c0-5.2,4.2-9.4,9.4-9.4          h226.3C322.9,103.4,327.1,107.6,327.1,112.8z"/><path fill="#394084" d="M317.8,392.7H91.5c-5.4,0-9.8-4.4-9.8-9.8V112.8c0-5.4,4.4-9.8,9.8-9.8h226.3c5.4,0,9.8,4.4,9.8,9.8          v270.1C327.5,388.3,323.1,392.7,317.8,392.7z M91.5,103.8c-5,0-9,4-9,9v270.1c0,5,4,9,9,9h226.3c5,0,9-4,9-9V112.8          c0-5-4-9-9-9H91.5z"/><rect width="166" height="29" x="121.6" y="235.7" fill="#dcebff"/><path fill="#dcebff" d="M272.8,146.8c0.3,21.9-9.7,41.6-25.6,54.3c-3.8,3.1-8,5.7-12.4,7.9c-3.5,1.7-7.1,3.1-10.9,4.2           c-5.8,1.7-11.9,2.7-18.2,2.8c-6.9,0.1-13.5-0.8-19.8-2.6c-1.3-0.4-2.5-0.8-3.8-1.2c-0.3-0.1-0.6-0.2-0.9-0.3           c-4.8-1.8-9.4-4.1-13.7-6.8c-3.6-2.3-7-5-10.1-8c-12.7-12.2-20.7-29.2-21-48.2c-0.6-37.6,29.4-68.6,67.1-69.2           C241.2,79.1,272.2,109.1,272.8,146.8z"/><path fill="#ffc5b2" d="M247.2,201.1c-3.8,3.1-8,5.7-12.4,7.9c-3.5,1.7-7.1,3.1-10.9,4.2l-1.5-17.7l-0.8-9.9l24.3-0.4            l0.5,5.6L247.2,201.1z"/><path fill="#fb6a69" d="M215.2,154.7l4.2,41.5l7.2-1.4l18-3.6l4.8-1l-7.1-26.2c-1.6-5.7-6.8-9.7-12.8-9.6L215.2,154.7z"/><polygon points="226.6 194.7 244.6 191.2 231.1 166.4"/><path fill="#fb6a69" d="M237.7,184.1c0,0.4,0,0.8-0.1,1.3c-0.2,2.1-1,5.1-1.9,7.5c0,0.1,0,0.1-0.1,0.2                    c-1.4,3.3-1.8,7-1.3,10.5l0.4,5.4c-3.5,1.7-7.1,3.1-10.9,4.2c-5.8,1.7-11.9,2.7-18.2,2.8                    c-6.9,0.1-13.5-0.8-19.8-2.6c-1.3-0.4-2.5-0.8-3.8-1.2c-0.3-0.1-0.6-0.2-0.9-0.3c-4.8-1.8-9.4-4.1-13.7-6.8                    l0.2-13l0.1-5.6l0-1.4l0.2-15.2c0.1-5.6,3.4-10.4,8.3-12.6c1.5-0.7,3.1-1.1,4.7-1.2l12.4-0.5l0.7,0l20.2-0.8                    l0.9,0l3.8-0.2l1.2,0c5.9,0.3,9.5,5.7,10.9,11.8c0,0,0,0,0,0c0.2,0.8,0.3,1.6,0.4,2.4l0.8,7.4                    C235.5,177.4,237.7,180.5,237.7,184.1z"/><path d="M185.8,213.4c-1.3-0.4-2.5-0.8-3.8-1.2c-0.3-0.1-0.6-0.2-0.9-0.3l-1-20l-0.3-5.6l0-0.7l2.7-4.2L185.8,213.4z                 "/><path fill="#ffc5b2" d="M181.7,186.3l0.4,25.9c-0.3-0.1-0.6-0.2-0.9-0.3c-4.8-1.8-9.4-4.1-13.7-6.8c-3.6-2.3-7-5-10.1-8                 l-0.2-10.4L181.7,186.3z"/><path fill="#fb6a69" d="M156.2,192.3l-0.3-16.6c-0.2-10.6,8.3-19.3,18.9-19.5l7.7-0.1l-0.1,35.8L156.2,192.3z"/><path fill="#640915" d="M226.1,127.8c0,0,1.9,6.1,8.7,10.6c1.9,1.2,2.6,3.7,1.6,5.7c-2,4.1-6.4,9.8-14.8,8                 c-12.9-2.7-14-11.4-13.7-11.9c0.2-0.5,3.6-10.1,3.6-10.1L226.1,127.8z"/><path fill="#ffc5b2" d="M192.6,132.3l1.4,21c0,0-1.2,17.7,16.3,15.5c11.6-1.5,3.6-14.5,3.6-14.5l0.2-3l0.8-9.2l0.6-7.9                 L192.6,132.3z"/><path fill="#ff988b" d="M197.8,138.9c2.2,6,15.4,12,16.4,12.4l0.8-9.2c-2.4-1.2-6.7-3.4-7-3.4                 C207.5,138.6,195.6,132.7,197.8,138.9z"/><path fill="#ffc5b2" d="M192.6,132.3c0,0,10.8,18.5,27,13.6c10-3,11.5-18.4,7.6-30.2c-2.4-7.3-6.8-13.3-12.5-14.2                 c-15-2.3-19.3,18.8-19.3,18.8s-7.2-5.4-10.7,0.4C178.8,130.4,192.6,132.3,192.6,132.3z"/><path fill="#640915" d="M173.3,156c3.7,1.7,7.4,3.1,10.5,4.2c5.1,1.7,10.4-2.3,10-7.7l-1.2-20.2c0,0-13.8-1.9-7.9-11.6                 c3.5-5.8,10.7-0.4,10.7-0.4s1.6,6.5,3,7.4c0,0,1-5.8,3.2-6.2c2.2-0.4,14.3-8.1,9.9-17.6c0,0,13.7,6.6,15.8,11.7                 c0.1,0.2,0.1,0.4,0.2,0.5c0,0,3.1,0.9,4.8-1.6c1.8-2.5-1.4-14.7-9.2-17.5c-7.9-2.7-13.9,0.2-13.9,0.2                 s-14.8-10.7-23.7,5.3c-8.9,16-2.7,27.6-10.8,35.4C166.5,145.9,162.2,150.9,173.3,156z"/><circle cx="212.9" cy="122.2" r="1.3"/><circle cx="223.4" cy="120.6" r="1.3"/><path fill="#ff988b" d="M219.3,132.4c-0.2-0.4-0.1-0.8,0.2-1c0.4-0.2,0.7-0.5,1-0.7c0.7-0.7,0.3-1.2-0.3-2                 c-0.1-0.1-2-2.3-2.8-5.8c-0.1-0.4,0.2-0.8,0.6-0.9c0.4-0.1,0.8,0.2,0.9,0.6c0.7,3,2.5,5.1,2.5,5.2                 c1.1,1.4,1.5,2.7,0.2,4c-0.4,0.4-0.9,0.7-1.3,1C220,132.9,219.5,132.7,219.3,132.4z"/><path fill="#ff988b" d="M215.9,135.3c-0.2-0.3-0.2-0.8,0.2-1c0.3-0.2,0.8-0.1,1,0.2c0.9,1.3,2.7,1.6,3.9,0.6                 c0.3-0.2,0.8-0.2,1,0.2c0.2,0.3,0.2,0.8-0.2,1C220,137.7,217.3,137.3,215.9,135.3z"/><g><path fill="#3b93fe" d="M451.2,207.3l-8.7,0.4c-14.5,0.6-27.9,7.9-36.4,19.6L384,257.8l-37.2-6.4l-2.2,36.5l36.1,15.7           c8.1,1.8,16.5,0.5,23.5-3.3c4.4-2.4,8.3-5.7,11.4-9.9l14.5-19.9l21.9-30L451.2,207.3z"/><path d="M430,270.5l-14.5,19.9c-3.1,4.2-7,7.5-11.4,9.9l16.7-62.7L430,270.5z"/><path fill="#ffc5b2" d="M404.7,582.3l-11,15.5l-14.8,1.3l-3.4-27.1l1.3-11l0.7-6.6c0,0,27-3.4,27.3-3.3                   c0.2,0.1,0.1,12,0,21C404.8,577.7,404.7,582.3,404.7,582.3z"/><polygon points="376.4 559.9 404.8 574 404.6 558.5"/><path fill="#453447" d="M371.9,595.1c-7-2.2-16.6-7.4-20.5-12.9c-2.2-3.1-3.3-8.3-0.5-10.5c2.2-1.8,5.1-0.7,7.5,0.9                     c5,3.5,8.6,8.3,12.2,12.9l-1.2,1c-3.5-4.5-7-9.2-11.8-12.6c-1.7-1.2-4-2.3-5.6-1c-2,1.6-1,5.9,0.8,8.4                     c3.5,5,12.7,10.1,19.6,12.3L371.9,595.1z"/><path fill="#453447" d="M368,588.3c-2.4-1.2-4.4-3.2-5.6-5.7c-2.2-4.3-1.1-8.4,1.6-10.4c3.4-2.4,8.2-0.9,8.9,5.5                     c0.2,2.1,0.1,4.1,0.8,5.9c0.5,1.4,1.6,2.7,3,2.4l0.3,1.5c-1.7,0.3-3.8-0.7-4.8-3.4c-0.7-2.1-0.6-4.3-0.8-6.3                     c-0.6-5.1-3.9-6.1-6.4-4.4c-2.1,1.5-3,4.7-1.1,8.4c1.1,2.1,2.8,3.9,5,5L368,588.3z"/><path fill="#3b93fe" d="M403.5,619.3l-75-6.3c0,0-1.9-13.3,22.6-15.9c0,0,19.8-9.9,24.5-25.5c0,0,6.9-0.6,3.9,8.1                     c-0.1,0.2-0.1,0.3-0.1,0.4c0,0,0,0,0,0.1c0,0,25.7,2.3,25.5,2.1C404.5,582.1,403.5,619.3,403.5,619.3z"/><path fill="#231826" d="M329.4,608.2c-1.2,2.7-0.9,4.9-0.9,4.9l75,6.3c0,0,0.1-1.9,0.1-4.9L329.4,608.2z"/><path fill="#dcebff" d="M379.4,579.7c-0.1,0.2-0.1,0.3-0.1,0.4c0,0,0,0,0,0.1c0,0-7.9,23-28.1,16.9                     c0,0,19.8-9.9,24.5-25.5C375.5,571.6,382.4,571,379.4,579.7z"/><path fill="#453447" d="M380.1,584l-11.5-1c-0.4,0-0.7-0.4-0.7-0.8c0-0.4,0.4-0.7,0.8-0.7l11.5,1                      c0.4,0,0.7,0.4,0.7,0.8C380.8,583.7,380.5,584,380.1,584z"/><path fill="#453447" d="M374.9,591.2l-13.2-2c-0.4-0.1-0.7-0.4-0.6-0.9c0.1-0.4,0.5-0.7,0.9-0.6l13.2,2                      c0.4,0.1,0.7,0.4,0.6,0.9C375.7,591,375.3,591.3,374.9,591.2z"/><path fill="#453447" d="M368.8,596.6c-0.2,0,0.4,0.2-10.6-4.4c-0.4-0.2-0.6-0.6-0.4-1c0.2-0.4,0.6-0.6,1-0.4                      l10.4,4.3c0.4,0.2,0.6,0.6,0.4,1C369.5,596.5,369.2,596.7,368.8,596.6z"/><path fill="#453447" d="M361.3,600.2l-7.5-5.3c-0.3-0.2-0.4-0.7-0.2-1.1c0.2-0.3,0.7-0.4,1.1-0.2l7.5,5.3                      c0.3,0.2,0.4,0.7,0.2,1.1C362.1,600.4,361.6,600.5,361.3,600.2z"/><g><path fill="#ffc5b2" d="M505.7,573l-7.1,17.6l-14.2,4.6l-9.6-25.6l-1.3-11l-0.8-6.6c0,0,25.5-9.5,25.9-9.5                   c0.2,0,2.9,11.6,4.8,20.5C504.8,568.5,505.7,573,505.7,573z"/><polygon points="473.1 557.7 503.9 564.9 500.2 549.8"/><path fill="#453447" d="M476.8,593c-5.8-0.4-11.5-1.9-16.9-4.2c-1.8-0.8-4.1-1.9-6-3.6c-2.9-2.5-5.1-7.3-2.9-10.2                     c1.8-2.3,4.8-1.9,7.5-0.8c5.6,2.3,10.3,6.1,14.8,9.8l-1,1.2c-4.4-3.6-9-7.4-14.4-9.6c-1.9-0.8-4.4-1.4-5.7,0.3                     c-1.6,2.1,0.4,6,2.7,8c1.8,1.6,3.9,2.6,5.6,3.4c5.2,2.3,10.7,3.7,16.3,4.1L476.8,593z"/><path fill="#453447" d="M471.3,587.2c-2.6-0.6-5-2.1-6.8-4.2c-3.1-3.7-3-8-0.8-10.5c2.7-3.1,7.7-2.8,9.9,3.3                     c0.5,1.5,2.1,8.8,5.6,7.3l0.6,1.4c-1.6,0.7-3.9,0.2-5.4-2.2c-1.2-1.9-1.6-4-2.3-5.9c-1.7-4.8-5.2-5.1-7.2-2.8                     c-1.7,1.9-1.8,5.3,0.8,8.4c1.5,1.8,3.6,3.1,6,3.7L471.3,587.2z"/><path fill="#3b93fe" d="M513,609.2l-74.4,11.1c0,0-4.9-12.5,18.4-20.7c0,0,17-14.2,18-30.4c0,0,6.5-2.1,5.6,7                     c0,0.2,0,0.4,0,0.4c0,0,0,0,0,0.1c0,0,25.5-3.6,25.3-3.8C505.5,572.8,513,609.2,513,609.2z"/><path fill="#231826" d="M438.3,615.4c-0.5,2.9,0.2,4.9,0.2,4.9l74.5-11.1c0,0-0.4-1.9-1-4.8L438.3,615.4z"/><path fill="#dcebff" d="M480.5,576.2c0,0.2,0,0.4,0,0.4c0,0,0,0,0,0.1c0,0-2.4,24.2-23.5,22.9c0,0,17-14.2,18-30.4                     C474.9,569.2,481.4,567.1,480.5,576.2z"/><path fill="#453447" d="M482.1,580.3l-11.4,1.7c-0.4,0.1-0.8-0.2-0.9-0.6c-0.2-1.4,1.8-0.7,12-2.6                      c0.4-0.1,0.8,0.2,0.9,0.6S482.6,580.2,482.1,580.3z"/><path fill="#453447" d="M478.8,588.4l-13.3,1.1c-0.4,0-0.8-0.3-0.8-0.7s0.3-0.8,0.7-0.8l13.3-1.1                      c0.4,0,0.8,0.3,0.8,0.7C479.5,588.1,479.2,588.4,478.8,588.4z"/><path fill="#453447" d="M473.9,595.1l-11.1-1.8c-0.4-0.1-0.7-0.5-0.6-0.9c0.1-0.4,0.5-0.7,0.9-0.6l11.1,1.8                      c0.4,0.1,0.7,0.5,0.6,0.9C474.7,594.9,474.3,595.2,473.9,595.1z"/><path fill="#453447" d="M467.6,600.4l-8.5-3.5c-0.4-0.2-0.6-0.6-0.4-1c0.2-0.4,0.6-0.6,1-0.4l8.5,3.5                      c0.4,0.2,0.6,0.6,0.4,1C468.4,600.3,468,600.5,467.6,600.4z"/></g><g><path fill="#394084" d="M464.9,331.2l-37.7,107.3l-7,128.6l-66.7-8.7c0,0,7.6-125.1,13.1-137.8                    c9.4-21.9,46-93.1,46-93.1L464.9,331.2z"/><polygon points="458.7 321.2 427.1 439.3 441.5 323.5"/><path fill="#394084" d="M513.8,334.6c4.9,27.7-10,67.4-22.1,105.4L522,556.4l-72.8,3.2c0,0-17-90.4-17.2-120.9                     c-0.2-29.6,15.1-117.5,15.1-117.5L513.8,334.6z"/><path fill="#fff" d="M514.4,556.5L483.9,440l0-0.1c1.5-4.7,3.1-9.5,4.6-14.3c10.7-32.8,21.8-66.8,17.5-90.9                     l1-0.2c4.4,24.4-6.8,58.4-17.5,91.4c-1.5,4.7-3.1,9.4-4.6,14.1l30.4,116.2L514.4,556.5z"/><path fill="#3b93fe" d="M513.7,334.6l-103.5-7.2l12.1-102c1.9-10.2,10.7-17.7,21.1-18.1l45.3-1.4                     c12.6-0.4,23,9.6,23,22.2l0.8,43.6l0.3,14.1L513.7,334.6z"/><g><polygon points="471.6 314.4 508.6 279.9 493.7 237.6 512.5 271.7 512.8 285.9"/></g></g><g><path fill="#fff" d="M498.3,392.6c-3.1-3.2-5.5-7.1-6.9-11.3c-2.6-7.5-2.4-16.1,0.7-24.2c2.7-7.2,7.6-14,14.2-19.8                 l0.7,0.8c-6.5,5.6-11.3,12.4-13.9,19.4c-3,7.9-3.2,16.3-0.7,23.6c1.4,4.1,3.7,7.9,6.7,11L498.3,392.6z"/></g><g><path fill="#fff" d="M397.7,357l0.1-1c9.3,0.6,21.3-12,17.4-26.4l1-0.3C420.1,343.9,408.1,357.6,397.7,357z"/></g><g><path fill="#fff" d="M410.7,554.1c-16.8-5.1-34.2-7.5-51.8-7.2l0-1c17.7-0.3,35.2,2.1,52.1,7.3L410.7,554.1z"/></g><g><path fill="#fff" d="M460.5,549.9l-0.1-1c14.1-1.8,28.5-1.9,42.7-0.3l-0.1,1C488.9,548,474.6,548.1,460.5,549.9z"/></g><g><path fill="#ffc5b2" d="M470.7,316.7c-3.2-0.5-11.9-0.7-11.9-0.7c-0.4,0-0.8,0-1.2,0.1c-1.7,0.4-2.9,2-2.9,3.8                 c0,1.8,1.2,3.4,3,3.7l3.5,0.7"/></g><g><path fill="#ffc5b2" d="M461.2,324.4c-3.8,3.7-9.9,8.9-17,12c-1.2,0.5-1.8,1.9-1.3,3.1c0.5,1.3,2,1.9,3.3,1.4l16-7.1                 c-0.5,0.4-9,6.9-16,10.8c-1.2,0.7-1.6,2.2-1,3.4c0.6,1.2,2.1,1.7,3.3,1.1l15.2-7.1l-11,6.9c-1.1,0.7-1.5,2-0.9,3.2                 c0.7,1.3,2.2,1.8,3.5,1.1l14-7.5l-6.7,7.1c-0.7,0.8-0.7,2,0.1,2.7c0.8,0.7,1.9,0.7,2.6,0.1l29.1-17.1l-14.7-24                 c0,0-5.4,1.9-8.8,2.2"/></g><g><path fill="#3b93fe" d="M488.7,205.9l0.8,0c21.7,0.8,35.5,13.9,49.8,32.1l26.8,41.2c5.3,11.3,0.6,24.8-10.6,30.3                l-70,35.5l-13.9-30.6l46.6-32.3l-12.5-21.7c-7.6-9.2-12.4-20.3-14-32.1L488.7,205.9z"/></g><g><polygon fill="#ffc5b2" points="478.4 180.4 478.4 206.4 461.2 217.4 451.5 207.1 451.5 181.3"/></g><g><path fill="#ff988b" d="M473.2,185.4c0,0.1-0.4,1-3.4,7.7c-3.4,7.7-18.2,12.9-18.2,12.9v-10.8c7.5-3.3,17.3-7.7,17.5-7.7             C469.4,187.4,472.9,185.5,473.2,185.4z"/></g><g><path fill="#ffc5b2" d="M436.6,173.2c1.2,13.2,4.4,25.2,12,26.9c19.6,4.5,29.7-19.7,29.7-19.7s7.9-0.8,9.8-9.3             c0.9-3.8,0.3-6.2-1.2-7.1c-3-1.8-6.4-2.4-6.4-2.4s-13.7-17-15.2-17.9c-1.5-1-26.2-2.3-28,2.8c-0.6,1.6-1.1,7.3-1.1,14.4             c0,0,0,0,0,0C436.1,164.7,436.3,168.9,436.6,173.2z"/></g><g><path d="M489.2,150.6c0,0,5.5,10.3-2.2,13.3c-1.5-0.6-3.2-1.5-4.6-2c-0.9-0.3-1.6-0.6-2.5-0.1c-1.2,0.7-1.9,2.1-2.2,3.4            c-0.4,1.7-0.1,3.4,0.1,5.1c-4.9-4.8-8.1-11.5-8.1-18.5c-1.4,1.5-4.9,2.3-6.8,3c-2.7,0.9-5.6,1.6-8.4,2            c-5.7,0.8-11.5,0.6-17-0.7c-3.5-0.8-7.2-2.2-9.2-5.3c-2.2-3.5-1.3-8.5,2-11c-0.9-2-0.5-4.5,0.7-6.3            c3.3-4.8,16.2-10.6,24.6-4.6c1.7,1.2,6.2,6.2,15.8,5.8c2.3-0.1,4.6,0.1,6.8,0.6C487.5,137.4,491.6,145.8,489.2,150.6z"/></g><g><circle cx="457.2" cy="165.9" r="2.2"/><path d="M443.1,167.5c-1.2,0.1-2.3-0.8-2.5-2c-0.1-1.2,0.8-2.3,2-2.5c1.2-0.1,2.3,0.8,2.5,2             C445.2,166.3,444.3,167.4,443.1,167.5z"/><path fill="#ff988b" d="M449.1,182c-0.8-0.3-1.6-0.6-2.3-1.2c-2.4-1.7-1.9-3.8-0.7-6.1c0.1-0.2,2.5-4.1,2.7-9.7             c0-0.4,0.4-0.7,0.8-0.7c0.4,0,0.7,0.4,0.7,0.8c-0.3,5.8-2.6,9.5-2.9,10.4c-0.9,1.7-1.4,3,0.2,4.2c0.6,0.4,1.3,0.7,2,1             c0.4,0.2,0.6,0.6,0.4,1C449.9,182,449.5,182.2,449.1,182z"/><path fill="#ff988b" d="M447.4,189.3c-0.4-0.2-0.5-0.7-0.2-1c0.2-0.4,0.7-0.5,1-0.2c2.5,1.6,5.9,0.7,7.3-1.9             c0.2-0.4,0.7-0.5,1-0.3c0.4,0.2,0.5,0.7,0.3,1C454.9,190.2,450.6,191.3,447.4,189.3z"/></g><g><polygon fill="#0f57d7" points="478.4 198.7 485.8 206 468 230.9 461.2 217.4"/></g><g><polyline fill="#0f57d7" points="461.2 217.4 454.1 230.2 445.2 207.2 451.5 201.8 461.2 216.7"/></g><g><rect width="7.9" height="8.9" x="298.5" y="240.2" fill="#28306f" transform="rotate(-49.697 302.445 244.676)"/><path fill="#6168ac" d="M308.4,244.5l-5.1,6l4.7,9.8c3.2,2.7,14.1-10.1,10.9-12.8L308.4,244.5z"/><path fill="#394084" d="M298.2,200.5c-13.2-11.2-33-9.6-44.2,3.6c-11.2,13.2-9.6,33,3.6,44.2c13.2,11.2,33,9.6,44.2-3.6            C313,231.5,311.4,211.7,298.2,200.5z M296.1,239.9c-8.5,10.1-23.6,11.3-33.7,2.8c-10.1-8.5-11.3-23.6-2.8-33.7            c8.5-10.1,23.6-11.3,33.7-2.8C303.5,214.8,304.7,229.8,296.1,239.9z"/><path fill="#fff" d="M296.1,239.9c-8.5,10.1-23.6,11.3-33.7,2.8c-10.1-8.5-11.3-23.6-2.8-33.7            c8.5-10.1,23.6-11.3,33.7-2.8C303.5,214.8,304.7,229.8,296.1,239.9z" opacity=".3"/><path fill="#6168ac" d="M318.9,247.6l29.2,24.7c3.5,3,4,8.3,1,11.9c-3,3.5-8.3,4-11.9,1L308,260.4L318.9,247.6z"/></g><g><path fill="#ffc5b2" d="M346.6,253.9l-1,16.1l-16.2-13.4l-7.3,1.5c-2.2,0.5-4.4-0.7-5.3-2.8l-0.1-0.1c-1-2.6,0.5-5.5,3.2-6.2           l6.8-1.7c3.5-0.9,7.9-1.5,10.4,1.1L346.6,253.9z"/></g><g><path fill="#ffc5b2" d="M336.5,278.6L336.5,278.6c0.8,2-0.5,4.2-2.6,4.5l4,1c1.2,0.3,2.1,1.2,2.4,2.4            c0.4,1.4-0.3,2.8-1.4,3.6c-0.2,0.2-0.5,0.3-0.8,0.4l-4,1.3c-3.9,1.3-8.1-1.8-7.5-5.9l0-0.1c0,0-8.8,0.5-8.9-5.9            c0,0-7.9-1.7-6-7.6c0,0-12.5-3.2-4.1-12.3l3.9,3.8l8.6-1.5c1.7-0.2,3.3,0.7,4,2.2c0.7,1.7,0.1,3.6-1.4,4.5            c-0.2,0.1-0.4,0.3-0.7,0.4l5.8,0.7c1.2,0.2,2.3,1,2.7,2.1c0.6,1.5,0,3.2-1.3,4.1c-0.2,0.1-0.4,0.2-0.5,0.3l-1.5,0.6            l5.6-0.7C334.5,276.3,336,277.2,336.5,278.6z"/><path d="M311.8,272.7c-0.2,0-0.4-0.2-0.5-0.4c-0.1-0.3,0.1-0.5,0.4-0.6l7.6-1.9c0.3-0.1,0.5,0.1,0.6,0.4            c0.1,0.3-0.1,0.5-0.4,0.6l-7.6,1.9C311.9,272.7,311.8,272.7,311.8,272.7z"/><path d="M317.8,280.3c-0.2,0-0.4-0.1-0.5-0.4c-0.1-0.3,0.1-0.5,0.4-0.6l7.2-2c0.3-0.1,0.5,0.1,0.6,0.4            c0.1,0.3-0.1,0.5-0.4,0.6l-7.2,2C317.9,280.3,317.8,280.3,317.8,280.3z"/><path d="M326.7,286.3c-0.2,0-0.4-0.1-0.5-0.3c-0.1-0.3,0.1-0.5,0.3-0.6l4.9-1.7c0.3-0.1,0.5,0.1,0.6,0.3            c0.1,0.3-0.1,0.5-0.3,0.6l-4.9,1.7C326.8,286.3,326.7,286.3,326.7,286.3z"/></g></g><g><rect width="199.1" height="6.5" x="105.1" y="284.4" fill="#dcebff"/></g><g><rect width="199.1" height="6.5" x="105.1" y="301.2" fill="#dcebff"/></g><g><rect width="60.5" height="6.5" x="105.1" y="318" fill="#dcebff"/></g><g><rect width="63.9" height="6.5" x="182" y="318" fill="#dcebff"/></g><g><path fill="#fee8a0" d="M129.7,360.4c-0.4,0.3-0.5,0.9-0.4,1.3l1.3,7.5c0.2,1.2-1.1,2.2-2.2,1.6l-6.7-3.5          c-0.4-0.2-1-0.2-1.4,0l-6.7,3.5c-1.1,0.6-2.4-0.4-2.2-1.6l1.3-7.5c0.1-0.5-0.1-1-0.4-1.3l-5.4-5.3c-0.9-0.9-0.4-2.4,0.8-2.6          l7.5-1.1c0.5-0.1,0.9-0.4,1.1-0.8l3.4-6.8c0.6-1.1,2.2-1.1,2.7,0l3.4,6.8c0.2,0.4,0.6,0.8,1.1,0.8l7.5,1.1          c1.2,0.2,1.7,1.7,0.8,2.6L129.7,360.4z"/><path fill="#fee8a0" d="M171.6,360.4c-0.4,0.3-0.5,0.9-0.4,1.3l1.3,7.5c0.2,1.2-1.1,2.2-2.2,1.6l-6.7-3.5          c-0.4-0.2-1-0.2-1.4,0l-6.7,3.5c-1.1,0.6-2.4-0.4-2.2-1.6l1.3-7.5c0.1-0.5-0.1-1-0.4-1.3l-5.4-5.3c-0.9-0.9-0.4-2.4,0.8-2.6          l7.5-1.1c0.5-0.1,0.9-0.4,1.1-0.8l3.4-6.8c0.6-1.1,2.2-1.1,2.7,0l3.4,6.8c0.2,0.4,0.6,0.8,1.1,0.8l7.5,1.1          c1.2,0.2,1.7,1.7,0.8,2.6L171.6,360.4z"/><path fill="#fee8a0" d="M213.4,360.4c-0.4,0.3-0.5,0.9-0.4,1.3l1.3,7.5c0.2,1.2-1.1,2.2-2.2,1.6l-6.7-3.5          c-0.4-0.2-1-0.2-1.4,0l-6.7,3.5c-1.1,0.6-2.4-0.4-2.2-1.6l1.3-7.5c0.1-0.5-0.1-1-0.4-1.3l-5.4-5.3c-0.9-0.9-0.4-2.4,0.8-2.6          l7.5-1.1c0.5-0.1,0.9-0.4,1.1-0.8l3.4-6.8c0.6-1.1,2.2-1.1,2.7,0l3.4,6.8c0.2,0.4,0.6,0.8,1.1,0.8l7.5,1.1          c1.2,0.2,1.7,1.7,0.8,2.6L213.4,360.4z"/><path fill="#fee8a0" d="M255.2,360.4c-0.4,0.3-0.5,0.9-0.4,1.3l1.3,7.5c0.2,1.2-1.1,2.2-2.2,1.6l-6.7-3.5          c-0.4-0.2-1-0.2-1.4,0l-6.7,3.5c-1.1,0.6-2.4-0.4-2.2-1.6l1.3-7.5c0.1-0.5-0.1-1-0.4-1.3l-5.4-5.3c-0.9-0.9-0.4-2.4,0.8-2.6          l7.5-1.1c0.5-0.1,0.9-0.4,1.1-0.8l3.4-6.8c0.6-1.1,2.2-1.1,2.7,0l3.4,6.8c0.2,0.4,0.6,0.8,1.1,0.8l7.5,1.1          c1.2,0.2,1.7,1.7,0.8,2.6L255.2,360.4z"/><path fill="#fee8a0" d="M297.1,360.4c-0.4,0.3-0.5,0.9-0.4,1.3l1.3,7.5c0.2,1.2-1.1,2.2-2.2,1.6l-6.7-3.5          c-0.4-0.2-1-0.2-1.4,0l-6.7,3.5c-1.1,0.6-2.4-0.4-2.2-1.6l1.3-7.5c0.1-0.5-0.1-1-0.4-1.3l-5.4-5.3c-0.9-0.9-0.4-2.4,0.8-2.6          l7.5-1.1c0.5-0.1,0.9-0.4,1.1-0.8l3.4-6.8c0.6-1.1,2.2-1.1,2.7,0l3.4,6.8c0.2,0.4,0.6,0.8,1.1,0.8l7.5,1.1          c1.2,0.2,1.7,1.7,0.8,2.6L297.1,360.4z"/></g><g><path fill="#dcebff" d="M260.9,511.2c-19.3,0-38.6-5.8-54.2-17.2c-5.8,4.5-14,6.6-21.7,4.9c-10.4-2.3-19.5-10.5-24.4-21.8        c-3.9-9-5.3-19.8-4.2-33.1l1,0.1c-1,13.1,0.4,23.8,4.2,32.6c4.7,10.9,13.8,19,23.7,21.2c7.3,1.6,15-0.3,20.6-4.5        c-3.8-2.9-8.3-6.8-9.9-12.2c-0.9-3.1-0.5-6.7,1.1-9.5c1.3-2.2,3.1-3.7,5.3-4.3c4.1-1.1,8.9,1.3,11,5.4c1.8,3.6,1.9,8.2,0,12.6        c-1.3,3.1-3.3,5.8-5.9,8c26.6,19.2,64,22.3,93.4,7.6l0.4,0.9C288.8,508.1,274.9,511.2,260.9,511.2z M204.4,468        c-0.6,0-1.2,0.1-1.8,0.2c-2.5,0.7-3.9,2.5-4.7,3.9c-1.4,2.6-1.8,5.9-1,8.7c1.5,5.2,6,9.1,9.7,11.9c2.6-2.1,4.6-4.8,5.8-7.8        c1.7-4.2,1.7-8.5,0-11.8C210.9,470.1,207.6,468,204.4,468z"/></g><g><path fill="#dcebff" d="M387.7,196.4l-0.6-0.8c10.4-7.9,16.3-21,15.6-33.4c-3.9,2.7-9.4,4-13.8,1.4c-11.2-6.5,0.4-24.8,11-12.5        c2,2.3,3.2,5.4,3.7,9.2c4.2-3.9,5.9-10,6.6-15.6c2.7-24-12.2-48.5-34.8-57.1l0.4-0.9c23,8.7,38.2,33.7,35.4,58.1        c-0.7,6.1-2.6,12.7-7.4,16.7C404.6,174,398.8,188,387.7,196.4z M389.3,162.8c4.3,2.5,9.7,1.1,13.3-1.7        c-0.4-3.9-1.6-7.1-3.5-9.3C389.5,140.7,379.4,157,389.3,162.8z"/></g><g><path fill="#ffd3de" d="M371.1,141.3v22.3c0,3.6-2.9,6.5-6.5,6.5h-70.2c-3.6,0-6.5-2.9-6.5-6.5v-22.3c0-3.6,2.9-6.5,6.5-6.5h70.2       C368.2,134.9,371.1,137.8,371.1,141.3z"/></g><g><path fill="#ff8281" d="M304.7,157.4l-2-2.9h-0.1h-2.1v2.9h-2.4v-10.6h4.6c2.6,0,4.6,1.3,4.6,3.8c0,1.6-0.8,2.8-2.2,3.3l2.4,3.4       H304.7z M302.4,148.8h-2v3.7h2c1.6,0,2.3-0.8,2.3-1.8C304.6,149.3,303.7,148.8,302.4,148.8z"/><path fill="#ff8281" d="M317.3,155.4v2h-8.2v-10.6h8v2h-5.6v2.3h4.9v1.9h-4.9v2.4H317.3z"/><path fill="#ff8281" d="M318.4,156.3l0.8-1.8c0.9,0.6,2.2,1.1,3.5,1.1c0.9,0,2-0.2,2-1.1c0-0.9-1.4-1.1-2.3-1.4       c-2.1-0.5-3.9-1-3.9-3.2c0-2.3,2.1-3.3,4.5-3.3c1.2,0,2.6,0.3,3.7,0.9l-0.8,1.9c-1-0.6-2-0.8-2.9-0.8c-1,0-2,0.3-2,1.2       c0,0.9,1.2,1.1,2.3,1.3c2.1,0.5,3.9,1,3.9,3.2c0,2.3-2.1,3.3-4.5,3.3C321.3,157.6,319.5,157.2,318.4,156.3z"/><path fill="#ff8281" d="M328.8,152.7v-5.9h2.4v5.8c0,1.9,0.8,2.8,2.4,2.8c1.7,0,2.4-1.1,2.4-2.8v-5.8h2.4v5.9       c0,3.2-1.8,4.8-4.8,4.8C330.6,157.6,328.8,155.9,328.8,152.7z"/><path fill="#ff8281" d="M350.4,157.4l0-6.3l-3.1,5.2h-1.1l-3.1-5.1v6.2h-2.3v-10.6h2l4,6.6l3.9-6.6h2l0,10.6H350.4z"/><path fill="#ff8281" d="M363.4,155.4v2h-8.2v-10.6h8v2h-5.6v2.3h4.9v1.9h-4.9v2.4H363.4z"/></g><g><path fill="#77c8ff" d="M282.4,436c0,7.3-5.9,13.2-13.2,13.2s-13.2-5.9-13.2-13.2c0-7.3,5.9-13.2,13.2-13.2v-10.2      c-12.9,0-23.4,10.5-23.4,23.4c0,12.9,10.5,23.4,23.4,23.4c12.9,0,23.4-10.5,23.4-23.4H282.4z"/></g><g><path fill="#fff" d="M282.4,436c0,7.3-5.9,13.2-13.2,13.2s-13.2-5.9-13.2-13.2c0-7.3,5.9-13.2,13.2-13.2S282.4,428.7,282.4,436z      "/></g><g><path fill="#ffd552" d="M297.6,431h-10.2c0-7.3-5.9-13.2-13.2-13.2v-10.2C287.1,407.6,297.6,418.1,297.6,431z"/></g></g></svg>