<svg xmlns="http://www.w3.org/2000/svg" viewBox="0 0 64 64"><g data-name="Layer 1"><path fill="#ffba17" d="M23 34V54a8 8 0 0 1-8 8H13a8 8 0 0 1-8-8V38a4 4 0 0 1 4-4zM43 14H31a2 2 0 0 0-2 2V28a2 2 0 0 0 2 2h1V27a5 5 0 0 1 5-5 3 3 0 1 1 3-3 3 3 0 0 1-3 3 5 5 0 0 1 5 5v3h1a2 2 0 0 0 2-2V16A2 2 0 0 0 43 14z"/><path fill="#231f20" d="M59.707,17.293l-10-10A.9993.9993,0,0,0,49,7H27a5.0059,5.0059,0,0,0-5,5V33H9a5.0059,5.0059,0,0,0-5,5V54a9.01,9.01,0,0,0,9,9H51a9.01,9.01,0,0,0,9-9V18A1,1,0,0,0,59.707,17.293ZM50,10.4141,56.5859,17H53a3.0033,3.0033,0,0,1-3-3ZM15,61H13a7.0078,7.0078,0,0,1-7-7V38a3.0033,3.0033,0,0,1,3-3H22V54A7.0078,7.0078,0,0,1,15,61Zm36,0H20.6509A8.9875,8.9875,0,0,0,24,54V12a3.0033,3.0033,0,0,1,3-3H48v5a5.0059,5.0059,0,0,0,5,5h5V54A7.0081,7.0081,0,0,1,51,61ZM43,13H31a3.0033,3.0033,0,0,0-3,3V28a3.0033,3.0033,0,0,0,3,3H43a3.0033,3.0033,0,0,0,3-3V16A3.0033,3.0033,0,0,0,43,13Zm-8,6a2,2,0,1,1,2,2A2.0023,2.0023,0,0,1,35,19Zm2,4a4.0042,4.0042,0,0,1,4,4v2H33V27A4.0042,4.0042,0,0,1,37,23Zm7,5a1.0009,1.0009,0,0,1-1,1V27a6.0031,6.0031,0,0,0-3.1066-5.2531,4,4,0,1,0-5.7868,0A6.0031,6.0031,0,0,0,31,27v2a1.0013,1.0013,0,0,1-1-1V16a1.0013,1.0013,0,0,1,1-1H43a1.0009,1.0009,0,0,1,1,1Z"/><path fill="#231f20" d="M17.63 21.3577l2.0555-.8809a.5187.5187 0 0 0 0-.9536L17.63 18.6423a.519.519 0 0 1-.2724-.2724l-.8809-2.0555a.5187.5187 0 0 0-.9536 0L14.6423 18.37a.519.519 0 0 1-.2724.2724l-2.0555.8809a.5187.5187 0 0 0 0 .9536l2.0555.8809a.519.519 0 0 1 .2724.2724l.8809 2.0555a.5187.5187 0 0 0 .9536 0l.8809-2.0555A.519.519 0 0 1 17.63 21.3577zM9.2226 5.0183l1.5416-.6607a.3891.3891 0 0 0 0-.7152L9.2226 2.9817a.3887.3887 0 0 1-.2043-.2043L8.3576 1.2358a.3891.3891 0 0 0-.7152 0L6.9817 2.7774a.3887.3887 0 0 1-.2043.2043l-1.5416.6607a.3891.3891 0 0 0 0 .7152l1.5416.6607a.3887.3887 0 0 1 .2043.2043l.6607 1.5416a.3891.3891 0 0 0 .7152 0l.6607-1.5416A.3887.3887 0 0 1 9.2226 5.0183z"/><path fill="#ffba17" d="M18.2226 10.0183l1.5416-.6607a.3891.3891 0 0 0 0-.7152l-1.5416-.6607a.3887.3887 0 0 1-.2043-.2043l-.6607-1.5416a.3891.3891 0 0 0-.7152 0l-.6607 1.5416a.3887.3887 0 0 1-.2043.2043l-1.5416.6607a.3891.3891 0 0 0 0 .7152l1.5416.6607a.3887.3887 0 0 1 .2043.2043l.6607 1.5416a.3891.3891 0 0 0 .7152 0l.6607-1.5416A.3887.3887 0 0 1 18.2226 10.0183zM57.2226 7.0183l1.5416-.6607a.3891.3891 0 0 0 0-.7152l-1.5416-.6607a.3887.3887 0 0 1-.2043-.2043l-.6607-1.5416a.3891.3891 0 0 0-.7152 0l-.6607 1.5416a.3887.3887 0 0 1-.2043.2043l-1.5416.6607a.3891.3891 0 0 0 0 .7152l1.5416.6607a.3887.3887 0 0 1 .2043.2043l.6607 1.5416a.3891.3891 0 0 0 .7152 0l.6607-1.5416A.3887.3887 0 0 1 57.2226 7.0183z"/><circle cx="6.5" cy="17.5" r="1.5" fill="#ffba17"/><circle cx="41.5" cy="3.5" r="1.5" fill="#ffba17"/><path fill="#231f20" d="M53,36H35a1,1,0,0,1,0-2H53a1,1,0,0,1,0,2ZM32,35a1,1,0,0,0-1-1H29a1,1,0,0,0,0,2h2A1,1,0,0,0,32,35Zm22,6a1,1,0,0,0-1-1H41a1,1,0,0,0,0,2H53A1,1,0,0,0,54,41ZM38,41a1,1,0,0,0-1-1H29a1,1,0,0,0,0,2h8A1,1,0,0,0,38,41Zm16,6a1,1,0,0,0-1-1H50a1,1,0,0,0,0,2h3A1,1,0,0,0,54,47Zm0-17a1,1,0,0,0-1-1H49a1,1,0,0,0,0,2h4A1,1,0,0,0,54,30Zm0-5a1,1,0,0,0-1-1H49a1,1,0,0,0,0,2h4A1,1,0,0,0,54,25ZM47,47a1,1,0,0,0-1-1H37a1,1,0,0,0,0,2h9A1,1,0,0,0,47,47ZM34,47a1,1,0,0,0-1-1H29a1,1,0,0,0,0,2h4A1,1,0,0,0,34,47Zm20,6a1,1,0,0,0-1-1H35a1,1,0,0,0,0,2H53A1,1,0,0,0,54,53ZM32,53a1,1,0,0,0-1-1H29a1,1,0,0,0,0,2h2A1,1,0,0,0,32,53Z"/></g></svg>