<svg width="610" height="648" viewBox="0 0 610 648" fill="none" xmlns="http://www.w3.org/2000/svg">
<rect x="162" y="46" width="428.723" height="556" fill="#414375"/>
<rect width="396.723" height="524" transform="translate(178 62)" fill="white"/>
<text fill="black" xml:space="preserve" style="white-space: pre" font-family="Arial" font-size="18" font-weight="bold" letter-spacing="0em"><tspan x="254" y="99.7402">ROBERT SIMMONS</tspan></text>
<rect x="315.5" y="120.5" width="259" height="79" stroke="#D8D8D8" stroke-opacity="0.819608"/>
<text fill="#D5A00F" xml:space="preserve" style="white-space: pre" font-family="Arial" font-size="8" font-weight="bold" letter-spacing="0em"><tspan x="331" y="143.273">PROFESSIONAL SUMMARY</tspan></text>
<text fill="#1E2532" xml:space="preserve" style="white-space: pre" font-family="Arial" font-size="7" letter-spacing="0em"><tspan x="331" y="155.927">Devoted teacher bringing student-focused teaching to cultivate safe </tspan><tspan x="331" y="164.927">classroom environment and controlled learning. Maintains constant </tspan><tspan x="331" y="173.927">parent communication and faculty collaboration. Solid history addressing </tspan><tspan x="331" y="182.927">student needs, assessments and curriculum development.</tspan></text>
<rect x="315.5" y="199.5" width="259" height="102" stroke="#D8D8D8" stroke-opacity="0.819608"/>
<text fill="#D5A00F" xml:space="preserve" style="white-space: pre" font-family="Arial" font-size="8" font-weight="bold" letter-spacing="0em"><tspan x="331" y="222.273">RELEVANT SKILLS</tspan></text>
<circle cx="335" cy="233" r="1" fill="black"/>
<text fill="#1E2532" xml:space="preserve" style="white-space: pre" font-family="Arial" font-size="7" letter-spacing="0em"><tspan x="341" y="234.927">Adapts teaching methods and instrumental materials to meet </tspan><tspan x="341" y="243.927">students varying needs and interests.</tspan></text>
<circle cx="335" cy="253" r="1" fill="black"/>
<text fill="#1E2532" xml:space="preserve" style="white-space: pre" font-family="Arial" font-size="7" letter-spacing="0em"><tspan x="341" y="254.927">Collaborates with staff around student learning styles, diffentiated </tspan><tspan x="341" y="263.927">instruction and curriculum modifications.</tspan></text>
<circle cx="335" cy="273" r="1" fill="black"/>
<text fill="#1E2532" xml:space="preserve" style="white-space: pre" font-family="Arial" font-size="7" letter-spacing="0em"><tspan x="341" y="274.927">Proficient in planning lessons and providing direct instruction for </tspan><tspan x="341" y="283.927">classrooms, small-groups and individual settings.</tspan></text>
<rect x="315.5" y="301.5" width="259" height="284" stroke="#D8D8D8" stroke-opacity="0.819608"/>
<text fill="#D5A00F" xml:space="preserve" style="white-space: pre" font-family="Arial" font-size="8" font-weight="bold" letter-spacing="0em"><tspan x="331" y="324.273">WORK HISTORY</tspan></text>
<text fill="#1E2532" xml:space="preserve" style="white-space: pre" font-family="Arial" font-size="6.5" font-weight="bold" letter-spacing="0em"><tspan x="331" y="340.753">CURRICULUM RESOURCE TEACHER</tspan></text>
<text fill="#1E2532" xml:space="preserve" style="white-space: pre" font-family="Arial" font-size="6.5" font-style="italic" letter-spacing="0em"><tspan x="491" y="340.753">Sep 2019 - Current</tspan></text>
<text fill="#1E2532" xml:space="preserve" style="white-space: pre" font-family="Arial" font-size="6.5" font-style="italic" letter-spacing="0em"><tspan x="331" y="351.753">Adams Central High School, Monroe, IN</tspan></text>
<circle cx="335" cy="361" r="1" fill="black"/>
<text fill="#1E2532" xml:space="preserve" style="white-space: pre" font-family="Arial" font-size="7" letter-spacing="0em"><tspan x="341" y="362.927">Co-develops and implements individualized behavior intervention </tspan><tspan x="341" y="371.927">plans (BIPs) for students.</tspan></text>
<circle cx="335" cy="381" r="1" fill="black"/>
<text fill="#1E2532" xml:space="preserve" style="white-space: pre" font-family="Arial" font-size="7" letter-spacing="0em"><tspan x="341" y="382.927">Guides five teaching assistants in lesson planning and classroom </tspan><tspan x="341" y="391.927">management activities.</tspan></text>
<text fill="#1E2532" xml:space="preserve" style="white-space: pre" font-family="Arial" font-size="6.5" font-weight="bold" letter-spacing="0em"><tspan x="331" y="408.753">ENGLISH LANGUAGE ARTS TEACHER</tspan></text>
<text fill="#1E2532" xml:space="preserve" style="white-space: pre" font-family="Arial" font-size="6.5" font-style="italic" letter-spacing="0em"><tspan x="487" y="408.753">Sep 2015 - Apr 2019</tspan></text>
<text fill="#1E2532" xml:space="preserve" style="white-space: pre" font-family="Arial" font-size="6.5" font-style="italic" letter-spacing="0em"><tspan x="331" y="419.753">Bellmont High School, Decatur, IN</tspan></text>
<circle cx="335" cy="429" r="1" fill="black"/>
<text fill="#1E2532" xml:space="preserve" style="white-space: pre" font-family="Arial" font-size="7" letter-spacing="0em"><tspan x="341" y="430.927">Gave students ample opportunities for larning and exploration with </tspan><tspan x="341" y="439.927">a balanced program of instruction.</tspan></text>
<circle cx="335" cy="449" r="1" fill="black"/>
<text fill="#1E2532" xml:space="preserve" style="white-space: pre" font-family="Arial" font-size="7" letter-spacing="0em"><tspan x="341" y="450.927">Improved student success by 60% through one-on-one counselling </tspan><tspan x="341" y="459.927">and individualized support.</tspan></text>
<circle cx="335" cy="469" r="1" fill="black"/>
<text fill="#1E2532" xml:space="preserve" style="white-space: pre" font-family="Arial" font-size="7" letter-spacing="0em"><tspan x="341" y="470.927">Graded students based on classroom contributions, test scores </tspan><tspan x="341" y="479.927">and assignments.</tspan></text>
<text fill="#1E2532" xml:space="preserve" style="white-space: pre" font-family="Arial" font-size="6.5" font-weight="bold" letter-spacing="0em"><tspan x="331" y="496.753">TEACHER ASSISTANT</tspan></text>
<text fill="#1E2532" xml:space="preserve" style="white-space: pre" font-family="Arial" font-size="6.5" font-style="italic" letter-spacing="0em"><tspan x="486" y="496.753">Jan 2010 - Dec 2014</tspan></text>
<text fill="#1E2532" xml:space="preserve" style="white-space: pre" font-family="Arial" font-size="6.5" font-style="italic" letter-spacing="0em"><tspan x="331" y="507.753">Deaconess Health System, Evansville, IN</tspan></text>
<circle cx="335" cy="517" r="1" fill="black"/>
<text fill="#1E2532" xml:space="preserve" style="white-space: pre" font-family="Arial" font-size="7" letter-spacing="0em"><tspan x="341" y="518.927">Worked with head teacher to maintain a safe and healthy learning </tspan><tspan x="341" y="527.927">environment for 18 students.</tspan></text>
<circle cx="335" cy="537" r="1" fill="black"/>
<text fill="#1E2532" xml:space="preserve" style="white-space: pre" font-family="Arial" font-size="7" letter-spacing="0em"><tspan x="341" y="538.927">Helped develop strategies to advance physical and intellectual </tspan><tspan x="341" y="547.927">competence.</tspan></text>
<circle cx="335" cy="557" r="1" fill="black"/>
<text fill="#1E2532" xml:space="preserve" style="white-space: pre" font-family="Arial" font-size="7" letter-spacing="0em"><tspan x="341" y="558.927">Supported social and emotional development and provided positive </tspan><tspan x="341" y="567.927">guidance.</tspan></text>
<mask id="path-44-inside-1_1690_3737" fill="white">
<path d="M178 120H316V224H178V120Z"/>
</mask>
<path d="M316 120H317V119H316V120ZM316 224V225H317V224H316ZM178 121H316V119H178V121ZM315 120V224H317V120H315ZM316 223H178V225H316V223Z" fill="#D8D8D8" fill-opacity="0.819608" mask="url(#path-44-inside-1_1690_3737)"/>
<text fill="#D5A00F" xml:space="preserve" style="white-space: pre" font-family="Arial" font-size="8" font-weight="bold" letter-spacing="0em"><tspan x="194" y="167.273">CONTACT</tspan></text>
<path d="M203.703 174.391C203.875 174.438 204 174.578 204 174.75C204 178.766 200.75 182 196.75 182C196.562 182 196.422 181.891 196.375 181.719L196 180.094C195.969 179.922 196.047 179.734 196.219 179.656L197.969 178.906C198.125 178.844 198.297 178.891 198.406 179.016L199.187 179.969C200.406 179.391 201.391 178.391 201.953 177.203L201 176.422C200.875 176.313 200.828 176.141 200.891 175.984L201.641 174.234C201.719 174.063 201.906 173.969 202.078 174.016L203.703 174.391Z" fill="#1E2532"/>
<text fill="#1E2532" xml:space="preserve" style="white-space: pre" font-family="Arial" font-size="7" letter-spacing="0em"><tspan x="208" y="179.927">555-555-5555</tspan></text>
<path d="M203.844 189.984C203.906 189.938 204 189.984 204 190.062V193.25C204 193.672 203.656 194 203.25 194H196.75C196.328 194 196 193.672 196 193.25V190.062C196 189.984 196.078 189.938 196.141 189.984C196.5 190.266 196.953 190.609 198.547 191.766C198.875 192 199.438 192.516 200 192.516C200.547 192.516 201.125 192 201.438 191.766C203.031 190.609 203.484 190.266 203.844 189.984ZM200 192C199.625 192.016 199.109 191.547 198.844 191.359C196.766 189.859 196.609 189.719 196.141 189.344C196.047 189.281 196 189.172 196 189.047V188.75C196 188.344 196.328 188 196.75 188H203.25C203.656 188 204 188.344 204 188.75V189.047C204 189.172 203.938 189.281 203.844 189.344C203.375 189.719 203.219 189.859 201.141 191.359C200.875 191.547 200.359 192.016 200 192Z" fill="#1E2532"/>
<text fill="#1E2532" xml:space="preserve" style="white-space: pre" font-family="Arial" font-size="7" letter-spacing="0em"><tspan x="208" y="192.927">example@example.com</tspan></text>
<path d="M199.688 207.844C197.406 204.562 197 204.219 197 203C197 201.344 198.328 200 200 200C201.656 200 203 201.344 203 203C203 204.219 202.578 204.562 200.297 207.844C200.156 208.062 199.828 208.062 199.688 207.844ZM200 204.25C200.688 204.25 201.25 203.703 201.25 203C201.25 202.312 200.688 201.75 200 201.75C199.297 201.75 198.75 202.312 198.75 203C198.75 203.703 199.297 204.25 200 204.25Z" fill="#1E2532"/>
<text fill="#1E2532" xml:space="preserve" style="white-space: pre" font-family="Arial" font-size="7" letter-spacing="0em"><tspan x="208" y="205.927">Indianapolis, IN 40677</tspan></text>
<mask id="path-53-inside-2_1690_3737" fill="white">
<path d="M178 223H316V343H178V223Z"/>
</mask>
<path d="M316 223H317V222H316V223ZM316 343V344H317V343H316ZM178 224H316V222H178V224ZM315 223V343H317V223H315ZM316 342H178V344H316V342Z" fill="#D8D8D8" fill-opacity="0.819608" mask="url(#path-53-inside-2_1690_3737)"/>
<text fill="#D5A00F" xml:space="preserve" style="white-space: pre" font-family="Arial" font-size="8" font-weight="bold" letter-spacing="0em"><tspan x="194" y="246.273">SKILLS</tspan></text>
<circle cx="198" cy="257" r="1" fill="black"/>
<text fill="#1E2532" xml:space="preserve" style="white-space: pre" font-family="Arial" font-size="7" letter-spacing="0em"><tspan x="204" y="258.927">Lesson planning</tspan></text>
<circle cx="198" cy="268" r="1" fill="black"/>
<text fill="#1E2532" xml:space="preserve" style="white-space: pre" font-family="Arial" font-size="7" letter-spacing="0em"><tspan x="204" y="269.927">Faculty collaboration</tspan></text>
<circle cx="198" cy="279" r="1" fill="black"/>
<text fill="#1E2532" xml:space="preserve" style="white-space: pre" font-family="Arial" font-size="7" letter-spacing="0em"><tspan x="204" y="280.927">Curriculum development</tspan></text>
<circle cx="198" cy="290" r="1" fill="black"/>
<text fill="#1E2532" xml:space="preserve" style="white-space: pre" font-family="Arial" font-size="7" letter-spacing="0em"><tspan x="204" y="291.927">Parent communication</tspan></text>
<circle cx="198" cy="301" r="1" fill="black"/>
<text fill="#1E2532" xml:space="preserve" style="white-space: pre" font-family="Arial" font-size="7" letter-spacing="0em"><tspan x="204" y="302.927">Classroom management</tspan></text>
<circle cx="198" cy="312" r="1" fill="black"/>
<text fill="#1E2532" xml:space="preserve" style="white-space: pre" font-family="Arial" font-size="7" letter-spacing="0em"><tspan x="204" y="313.927">Proficient in Spanish</tspan></text>
<circle cx="198" cy="323" r="1" fill="black"/>
<text fill="#1E2532" xml:space="preserve" style="white-space: pre" font-family="Arial" font-size="7" letter-spacing="0em"><tspan x="204" y="324.927">Differentiated instruction</tspan></text>
<mask id="path-70-inside-3_1690_3737" fill="white">
<path d="M178 342H316V467H178V342Z"/>
</mask>
<path d="M316 342H317V341H316V342ZM316 467V468H317V467H316ZM178 343H316V341H178V343ZM315 342V467H317V342H315ZM316 466H178V468H316V466Z" fill="#D8D8D8" fill-opacity="0.819608" mask="url(#path-70-inside-3_1690_3737)"/>
<text fill="#D5A00F" xml:space="preserve" style="white-space: pre" font-family="Arial" font-size="8" font-weight="bold" letter-spacing="0em"><tspan x="194" y="365.273">EDUCATION</tspan></text>
<text fill="#1E2532" xml:space="preserve" style="white-space: pre" font-family="Arial" font-size="6.5" font-weight="bold" letter-spacing="0em"><tspan x="194" y="377.753">MASTER OF SCIENCE </tspan><tspan x="194" y="386.753">EDUCATION</tspan></text>
<text fill="#1E2532" xml:space="preserve" style="white-space: pre" font-family="Arial" font-size="6.5" letter-spacing="0em"><tspan x="273" y="377.753">Apr 2010</tspan></text>
<text fill="#1E2532" xml:space="preserve" style="white-space: pre" font-family="Arial" font-size="6.5" font-style="italic" letter-spacing="0em"><tspan x="194" y="397.753">Purdue University, West Lafayette, </tspan><tspan x="194" y="406.753">IN</tspan></text>
<text fill="#1E2532" xml:space="preserve" style="white-space: pre" font-family="Arial" font-size="6.5" font-weight="bold" letter-spacing="0em"><tspan x="194" y="419.753">BACHELORS OF ARTS - </tspan><tspan x="194" y="428.753">ENGLISH LITERATURE</tspan></text>
<text fill="#1E2532" xml:space="preserve" style="white-space: pre" font-family="Arial" font-size="6" letter-spacing="0em"><tspan x="275" y="419.58">Apr 2006</tspan></text>
<text fill="#1E2532" xml:space="preserve" style="white-space: pre" font-family="Arial" font-size="6.5" font-style="italic" letter-spacing="0em"><tspan x="194" y="439.753">University of Notre Dame, Notre </tspan><tspan x="194" y="448.753">Dame, IN</tspan></text>
<path d="M202 62H237V140L219.5 135.063L202 140V62Z" fill="#D5A00F"/>
<text fill="white" xml:space="preserve" style="white-space: pre" font-family="Arial" font-size="18" font-weight="bold" letter-spacing="0em"><tspan x="212.996" y="94.7402">R&#10;</tspan><tspan x="213.497" y="113.74">S</tspan></text>
<path d="M602.199 18C604.621 17.4375 606.857 16.4062 609 15C606.857 13.6875 604.621 12.75 602.199 12C599.776 11.25 597.82 9.375 597.075 6.84375C596.516 4.40625 595.491 2.15625 594.093 0C592.789 2.15625 591.857 4.40625 591.112 6.84375C590.366 9.28125 588.503 11.25 585.988 12C583.565 12.5625 581.143 13.5938 579 15C581.143 16.3125 583.379 17.25 585.988 18C588.41 18.75 590.366 20.625 591.112 23.1563C591.671 25.5938 592.696 27.8438 594.093 30C595.398 27.8438 596.329 25.5938 597.075 23.1563C597.727 20.625 599.59 18.5625 602.199 18Z" fill="#F7C689"/>
<path d="M606.026 40.3222C607.959 40.3222 609.526 38.7552 609.526 36.8222C609.526 34.8892 607.959 33.3222 606.026 33.3222C604.093 33.3222 602.526 34.8892 602.526 36.8222C602.526 38.7552 604.093 40.3222 606.026 40.3222Z" fill="#F7C689"/>
</svg>
