<svg xmlns="http://www.w3.org/2000/svg" version="1.1" viewBox="0 0 3000 1687" width="3000" height="1687">
<defs/><!--ITEM: Illustration component 1--><g transform="translate(2215.625 723.4375) rotate(0.0 188.28125 292.1875)  scale(1.558877711541646 1.5652999616961891)"><svg width="241.56" height="373.331" viewBox="0.0 0.0 241.56 373.331"><path d="m3 3h235.56v367.331h-235.56z" fill="#fff"/><path d="m238.56 373.331h-235.56a3 3 0 0 1 -3-3v-367.331a3 3 0 0 1 3-3h235.56a3 3 0 0 1 3 3v367.331a3 3 0 0 1 -3 3zm-232.56-6h229.56v-361.331h-229.56z" fill="#222433"/><path d="m49.048 41.767h147.886v147.886h-147.886z" fill="#fff"/><path d="m196.935 192.654h-147.886a3 3 0 0 1 -3-3v-147.887a3 3 0 0 1 3-3h147.886a3 3 0 0 1 3 3v147.887a3 3 0 0 1 -3 3zm-144.886-6h141.886v-141.887h-141.886z" fill="#222433"/><path d="m45.745 215.293h151.189v23.426h-151.189z" fill="#82b1ff"/><path d="m196.935 271.137h-152.31a3 3 0 0 1 0-6h152.31a3 3 0 0 1 0 6z" fill="#222433"/><path d="m196.935 306.12h-152.31a3 3 0 0 1 0-6h152.31a3 3 0 0 1 0 6z" fill="#222433"/><g fill="#82b1ff"><ellipse cx="122.992" cy="100.17" rx="37.221" ry="37.884"/><path d="m52.338 187.584v-15.963c0-22.5 18.884-40.9 41.966-40.9h57.376c23.081 0 41.966 18.408 41.966 40.905v15.963"/></g></svg></g><!--ITEM: Illustration component 2--><g transform="translate(362.5 728.125) rotate(0.0 188.28125 291.40625)  scale(1.558877711541646 1.5611146676809586)"><svg width="241.56" height="373.331" viewBox="0.0 0.0 241.56 373.331"><path d="m3 3h235.56v367.331h-235.56z" fill="#fff"/><path d="m238.56 373.331h-235.56a3 3 0 0 1 -3-3v-367.331a3 3 0 0 1 3-3h235.56a3 3 0 0 1 3 3v367.331a3 3 0 0 1 -3 3zm-232.56-6h229.56v-361.331h-229.56z" fill="#222433"/><path d="m49.048 41.767h147.886v147.886h-147.886z" fill="#fff"/><path d="m196.935 192.654h-147.886a3 3 0 0 1 -3-3v-147.887a3 3 0 0 1 3-3h147.886a3 3 0 0 1 3 3v147.887a3 3 0 0 1 -3 3zm-144.886-6h141.886v-141.887h-141.886z" fill="#222433"/><path d="m45.745 215.293h151.189v23.426h-151.189z" fill="#82b1ff"/><path d="m196.935 271.137h-152.31a3 3 0 0 1 0-6h152.31a3 3 0 0 1 0 6z" fill="#222433"/><path d="m196.935 306.12h-152.31a3 3 0 0 1 0-6h152.31a3 3 0 0 1 0 6z" fill="#222433"/><g fill="#82b1ff"><ellipse cx="122.992" cy="100.17" rx="37.221" ry="37.884"/><path d="m52.338 187.584v-15.963c0-22.5 18.884-40.9 41.966-40.9h57.376c23.081 0 41.966 18.408 41.966 40.905v15.963"/></g></svg></g><!--ITEM: Illustration component 3--><g transform="translate(629.6875 539.0625) rotate(0.0 296.875 460.15625)  scale(1.5613166863009087 1.560745817095217)"><svg width="380.288" height="589.662" viewBox="0.0 0.0 380.288 589.662"><path d="m3 3h374.288v583.662h-374.288z" fill="#fff"/><path d="m377.288 589.663h-374.288a3 3 0 0 1 -3-3v-583.663a3 3 0 0 1 3-3h374.288a3 3 0 0 1 3 3v583.663a3 3 0 0 1 -3 3zm-371.288-6h368.288v-577.663h-368.288z" fill="#222433"/><path d="m76.168 64.598h234.981v234.981h-234.981z" fill="#fff"/><path d="m311.149 302.58h-234.981a3 3 0 0 1 -3-3v-234.98a3 3 0 0 1 3-3h234.981a3 3 0 0 1 3 3v234.98a3 3 0 0 1 -3 3zm-231.981-6h228.981v-228.98h-228.981z" fill="#222433"/><path d="m70.919 340.319h240.229v37.221h-240.229z" fill="#5a38fd"/><path d="m311.149 427.283h-242.01a3 3 0 0 1 0-6h242.01a3 3 0 0 1 0 6z" fill="#222433"/><path d="m311.149 482.87h-242.01a3 3 0 0 1 0-6h242.01a3 3 0 0 1 0 6z" fill="#222433"/><path d="m159.958 245.914h-39.113l.209-69.68.115-43.314c0-43.928 33.211-79.537 74.179-79.537s74.177 39.265 74.177 83.193l.782 39.672 1.793 73.852h-45.342" fill="#5a38fd"/><path d="m308.074 296.527v-32.32c0-15.986-16.442-28.786-35.74-28.786h-159.351c-19.3 0-33.813 12.845-33.813 28.831v32.531z" fill="#82b1ff"/><path d="m160.8 174.634 11.121-39.623a2.851 2.851 0 0 1 .093-.279l11.137-28.949a3.16 3.16 0 0 1 2.809-2.023l36.5-1.656a3.184 3.184 0 0 1 .843.075l4.957 1.123a31.416 31.416 0 0 1 15.14 8.298 3.207 3.207 0 0 1 .789 1.266 52.8 52.8 0 0 1 2.461 12.232 3.211 3.211 0 0 0 .872 1.954 52.981 52.981 0 0 1 -16.927 84.84c-8.246 3.668-14.7 5.047-23.093 4.436a1.7 1.7 0 0 0 -.188-.007c-1.383-.005-18.2-.238-28.182-9.082" fill="#fff"/><path d="m162.435 181.175-.693 63.753s1.605 27.405 34.126 26.824c30.692-.548 31.941-26.824 31.941-26.824v-32.115" fill="#fff"/><path d="m194.848 274.761c-33.967 0-36.084-29.358-36.1-29.658 0-.069-.006-.139-.005-.208l.693-63.752a3 3 0 0 1 3-2.968h.033a3 3 0 0 1 2.967 3.033l-.692 63.63c.144 1.838 2.559 24.418 31.071 23.914 26.957-.481 28.889-22.282 29-23.913v-32.026a3 3 0 0 1 6 0v32.114.143c-.479 10.059-8.385 29.208-34.885 29.682q-.55.009-1.082.009z" fill="#222433"/><path d="m244.118 113.845a52.816 52.816 0 0 1 2.785 14.1 52.981 52.981 0 0 1 -16.134 85.655c-8.277 3.684-14.749 5.056-23.19 4.428 0 0-17.858.147-28.273-9.082" fill="#fff"/><path d="m211.422 221.18c-1.282 0-2.594-.051-3.949-.149-1.832 0-19.37-.279-30.157-9.837a3 3 0 0 1 3.98-4.49c9.407 8.337 26.116 8.287 26.262 8.327a1.543 1.543 0 0 1 .244.008c7.722.578 13.616-.558 21.747-4.177a49.984 49.984 0 0 0 15.221-80.813 3 3 0 0 1 -.862-1.933 49.789 49.789 0 0 0 -2.627-13.294 3 3 0 1 1 5.673-1.953 55.724 55.724 0 0 1 2.866 13.77 55.981 55.981 0 0 1 -17.832 89.705c-7.573 3.37-13.657 4.836-20.566 4.836z" fill="#222433"/><circle cx="177.175" cy="104.661" fill="#5a38fd" r="29.468" transform="matrix(.94689085 -.32155515 .32155515 .94689085 -24.245 62.531)"/><circle cx="226.041" cy="95.743" fill="#5a38fd" r="22.847" transform="matrix(.93968068 -.34205294 .34205294 .93968068 -19.115 83.093)"/><g fill="#222433"><path d="m234.53 164.394a3 3 0 0 1 -2.291-4.935l8.465-10.028-15.766-10.56a3 3 0 0 1 3.339-4.985l18.551 12.426a3 3 0 0 1 .623 4.428l-10.627 12.59a3 3 0 0 1 -2.294 1.064z"/><circle cx="212.179" cy="142.148" r="3.897"/><circle cx="241.979" cy="133.526" r="3.897"/><path d="m235.033 187.781a16.912 16.912 0 0 1 -16.5-13.368 3 3 0 0 1 2.319-3.559l27.14-5.69a3 3 0 0 1 3.553 2.327 16.868 16.868 0 0 1 -16.507 20.29zm-9.6-11.758a10.871 10.871 0 0 0 20.429-4.283z"/></g><path d="m185.885 149.362a22.763 22.763 0 1 0 -14.924 31.013" fill="#fff"/><path d="m164.954 184.181a25.77 25.77 0 0 1 -6.71-50.637 25.9 25.9 0 0 1 30.394 14.625 3 3 0 1 1 -5.506 2.385 19.763 19.763 0 0 0 -37.209 13.032 19.763 19.763 0 0 0 24.252 13.893 3 3 0 0 1 1.572 5.791 25.94 25.94 0 0 1 -6.793.911z" fill="#222433"/><path d="m158.278 169.741a3 3 0 0 1 -1.044-5.814l11.053-4.1-11.863-6.38a3 3 0 0 1 2.842-5.285l17.711 9.525a3 3 0 0 1 -.378 5.455l-17.278 6.411a2.988 2.988 0 0 1 -1.043.188z" fill="#222433"/></svg></g><!--ITEM: Illustration component 4--><g transform="translate(1779.6875 539.0625) rotate(0.0 296.875 460.15625)  scale(1.5613166863009087 1.560745817095217)"><svg width="380.288" height="589.662" viewBox="0.0 0.0 380.288 589.662"><path d="m3 3h374.288v583.662h-374.288z" fill="#fff"/><path d="m377.288 589.662h-374.288a3 3 0 0 1 -3-3v-583.662a3 3 0 0 1 3-3h374.288a3 3 0 0 1 3 3v583.662a3 3 0 0 1 -3 3zm-371.288-6h368.288v-577.662h-368.288z" fill="#222433"/><path d="m76.168 64.598h234.981v234.981h-234.981z" fill="#fff"/><path d="m311.149 302.579h-234.981a3 3 0 0 1 -3-3v-234.979a3 3 0 0 1 3-3h234.981a3 3 0 0 1 3 3v234.98a3 3 0 0 1 -3 2.999zm-231.981-6h228.981v-228.979h-228.981z" fill="#222433"/><path d="m70.919 340.319h240.229v37.221h-240.229z" fill="#82b1ff"/><path d="m311.149 427.283h-242.01a3 3 0 0 1 0-6h242.01a3 3 0 0 1 0 6z" fill="#222433"/><path d="m311.149 482.87h-242.01a3 3 0 0 1 0-6h242.01a3 3 0 0 1 0 6z" fill="#222433"/><path d="m307.4 296.553v-14.319c0-21.125-20.409-38.409-45.353-38.409h-137.387c-24.944 0-45.353 17.284-45.353 38.409v14.319z" fill="#82b1ff"/><path d="m176.207 202.916-15.819-18.785 18.785-25.707 1.978-44.491 37.57-7.91 32.628 3.955v44.492l5.932 14.83-8.898 7.91-59.323 9.887z" fill="#fff"/><path d="m257.455 170.689a3 3 0 0 1 -2.75-1.8 45.673 45.673 0 0 0 -7.433-11.719 3 3 0 0 1 -.521-3.1 46.616 46.616 0 0 0 -.2-35.175 3 3 0 0 1 5.529-2.33 52.664 52.664 0 0 1 .886 38.05 51.691 51.691 0 0 1 7.234 11.862 3 3 0 0 1 -2.746 4.2z" fill="#222433"/><path d="m163.493 189.952-.264 53.224a30.858 30.858 0 0 0 30.008 30.887h.023a30.848 30.848 0 0 0 31.675-30v-5.712" fill="#fff"/><g fill="#222433"><path d="m194.122 277.075q-.471 0-.943-.012a33.68 33.68 0 0 1 -32.95-33.891l.265-53.234a3 3 0 0 1 3-2.986h.016a3 3 0 0 1 2.985 3.015l-.265 53.223a27.858 27.858 0 0 0 55.706.793v-5.629a3 3 0 1 1 6 0v5.71a33.846 33.846 0 0 1 -33.813 33.011z"/><circle cx="208.898" cy="154.084" r="5.141"/><circle cx="244.607" cy="154.914" r="5.141"/></g><path d="m185.41 159.227-.666-31.462a9.955 9.955 0 0 1 9.689-10.164l37.182-.938a32.4 32.4 0 1 0 -21.672-30.572c0 .709.03 1.41.076 2.107a48.77 48.77 0 0 0 -54.146 42.724q-.178 1.515-.262 3.038" fill="#fff"/><path d="m185.409 162.228a3 3 0 0 1 -3-2.937l-.667-31.463a12.985 12.985 0 0 1 12.611-13.228l37.186-.938a3 3 0 0 1 1.07.168 29.4 29.4 0 1 0 -19.666-27.741c0 .573.022 1.181.07 1.911a3 3 0 0 1 -3.345 3.175 45.824 45.824 0 0 0 -50.816 40.1c-.111.943-.194 1.9-.246 2.853a3 3 0 0 1 -5.991-.332c.059-1.072.153-2.156.278-3.223a51.83 51.83 0 0 1 54.069-45.642 35.4 35.4 0 1 1 24.191 34.747l-36.644.924a6.971 6.971 0 0 0 -6.766 7.1l.667 31.463a3 3 0 0 1 -2.936 3.063z" fill="#222433"/><path d="m163.493 186.986a26.728 26.728 0 1 1 21.992-26.307" fill="#fff"/><path d="m158.7 190.417a29.737 29.737 0 1 1 29.79-29.739 3 3 0 0 1 -3 3 3 3 0 0 1 -3-3 23.843 23.843 0 0 0 -.375-4.2 23.728 23.728 0 1 0 -19.148 27.557 3 3 0 0 1 1.063 5.905 30.085 30.085 0 0 1 -5.33.477z" fill="#222433"/><path d="m152.888 170.541a3 3 0 0 1 -1.019-5.823l9.649-3.482-15.9-6.269a3 3 0 1 1 2.2-5.582l23.294 9.184a3 3 0 0 1 -.082 5.614l-17.125 6.179a3 3 0 0 1 -1.017.179z" fill="#222433"/><path d="m257.463 167.689a48.582 48.582 0 0 1 3.53 26.793c-3.955 26.695-29.078 46.311-55.506 41.032" fill="#fff"/><path d="m214.19 239.378a47.365 47.365 0 0 1 -9.291-.923 3 3 0 1 1 1.176-5.883 41.985 41.985 0 0 0 32.62-7.131 46.966 46.966 0 0 0 19.33-31.4 45.538 45.538 0 0 0 -3.31-25.151 3 3 0 1 1 5.5-2.407 51.512 51.512 0 0 1 3.747 28.449 52.991 52.991 0 0 1 -21.81 35.415 48.437 48.437 0 0 1 -27.962 9.031z" fill="#222433"/><path d="m227.91 207.582c-8.158 0-16.684-6.82-17.23-19.886a3 3 0 0 1 .862-2.232 2.928 2.928 0 0 1 2.222-.892l26.991.772a3 3 0 0 1 2.912 3.1c-.465 13.184-8.225 19.11-15.71 19.134zm-10.868-16.913c1.382 7.183 6.224 10.913 10.868 10.913h.028c3.8-.013 8.273-2.79 9.454-10.332z" fill="#222433"/><path d="m219.859 177.759a3 3 0 0 1 -.948-5.847l12.681-4.227-6.67-16.815a3 3 0 0 1 5.577-2.213l7.84 19.764a3 3 0 0 1 -1.84 3.952l-15.69 5.231a3 3 0 0 1 -.95.155z" fill="#222433"/></svg></g><!--ITEM: Illustration component 5--><g transform="translate(1082.8125 293.75) rotate(0.0 593.75 656.25)  scale(1.570322686435321 1.571024679151874)"><svg width="756.214" height="835.442" viewBox="0.0 0.0 756.214 835.442"><path d="m3 3h535.529v815.101h-535.529z" fill="#fff"/><path d="m538.529 821.1h-535.529a3 3 0 0 1 -3-3v-815.1a3 3 0 0 1 3-3h535.529a3 3 0 0 1 3 3v815.1a3 3 0 0 1 -3 3zm-532.529-6h529.529v-809.1h-529.529z" fill="#222433"/><path d="m107.688 83.317h336.21v336.21h-336.21z" fill="#fff"/><path d="m443.9 422.526h-336.212a3 3 0 0 1 -3-3v-336.209a3 3 0 0 1 3-3h336.212a3 3 0 0 1 3 3v336.209a3 3 0 0 1 -3 3zm-333.21-6h330.21v-330.209h-330.212z" fill="#222433"/><path d="m416.914 419.364v-22.938a61.713 61.713 0 0 0 -61.532-61.532h-186.4a61.713 61.713 0 0 0 -61.532 61.532v22.938z" fill="#fff"/><path d="m416.914 422.365h-309.461a3 3 0 0 1 -3-3v-22.939a64.605 64.605 0 0 1 64.533-64.532h186.4a64.605 64.605 0 0 1 64.532 64.532v22.939a3 3 0 0 1 -3.004 3zm-306.461-6h303.461v-19.939a58.6 58.6 0 0 0 -58.532-58.532h-186.4a58.6 58.6 0 0 0 -58.533 58.532z" fill="#222433"/><circle cx="373.09" cy="223.639" fill="#fff" r="37.348"/><path d="m373.09 263.988a40.349 40.349 0 1 1 40.348-40.349 40.395 40.395 0 0 1 -40.348 40.349zm0-74.7a34.349 34.349 0 1 0 34.348 34.348 34.387 34.387 0 0 0 -34.348-34.345z" fill="#222433"/><path d="m373.794 177.835c-1.409 9.866-1.016 14.356-2.8 18.929a73.186 73.186 0 0 1 -43.894 121.369l-13.457 41.967a49.738 49.738 0 0 1 -95.09-29.188l25-84.572a40.071 40.071 0 1 1 28.242-55.406l1.939-59.605h97.247z" fill="#fff"/><path d="m228.024 219.045a3 3 0 0 1 -1.062-5.806l18.09-6.843-27.7-10.432a3 3 0 1 1 2.116-5.615l35.135 13.233a3 3 0 0 1 0 5.614l-25.524 9.654a2.973 2.973 0 0 1 -1.055.195z" fill="#222433"/><circle cx="304.129" cy="188.745" fill="#222433" r="8.273"/><path d="m397.335 136.7a40.92 40.92 0 0 0 -39.7-40.843 40.843 40.843 0 0 0 -72.4-16.123 40.843 40.843 0 0 0 -61.32 33.585 42.477 42.477 0 0 0 -31.7 62.773 42.8 42.8 0 0 0 10.7 65.916c-.014.493-.028 1-.028 1.508a40.927 40.927 0 0 0 29.85 39.35l10.473-35.46a40.064 40.064 0 0 1 -16.77-78.354c.29-.062.58-.12.871-.176q1.056-.229 2.13-.352a39.824 39.824 0 0 1 5.368-.367c16.349 0 34.641 9.994 40.872 24.045l3.765-51.485 84.8.86a2.006 2.006 0 0 0 .859-.184 78.8 78.8 0 0 1 5.464 41.123c5.467.5 6.541 1.172 6.541 1.172a98.094 98.094 0 0 1 17.127 4.722 40.73 40.73 0 0 0 -7.794-23.973 40.71 40.71 0 0 0 10.892-27.737z" fill="#5a38fd"/><g fill="#222433"><path d="m336.083 222.832c-.1 0-.2 0-.3 0l-17.8-.281a11.357 11.357 0 0 1 -10.612-8.506 3 3 0 1 1 5.815-1.474 5.313 5.313 0 0 0 4.946 3.982l17.8.281a2.815 2.815 0 0 0 .78-.072 2.724 2.724 0 0 0 2.044-3.162l-9.921-28.741a3 3 0 1 1 5.672-1.957l9.978 28.906c.032.093.06.188.083.284a8.727 8.727 0 0 1 -6.468 10.508 8.773 8.773 0 0 1 -2.017.232z"/><path d="m327.786 271.293c-11.523 0-23.567-9.752-24.308-28.408a3 3 0 0 1 3.087-3.118l40.463 1.212a3 3 0 0 1 2.908 3.11c-.7 18.776-11.616 27.192-22.124 27.2zm-18.042-25.427c1.674 12.771 10.034 19.427 18.042 19.427h.018c6.605-.007 14.428-4.9 15.918-18.41z"/><circle cx="354.923" cy="190.154" r="8.273"/><path d="m266.237 397.676a52.743 52.743 0 0 1 -50.563-67.612l23.654-80.034a43.074 43.074 0 0 1 -13.2-84.989 43.256 43.256 0 0 1 48.409 24.675 3 3 0 0 1 -5.487 2.43 37.223 37.223 0 0 0 -41.664-21.237 37.071 37.071 0 0 0 15.536 72.5 3 3 0 0 1 3.506 3.784l-25 84.572a46.737 46.737 0 0 0 89.355 27.422l13.462-41.965a3 3 0 0 1 2.425-2.053 70.186 70.186 0 0 0 42.089-116.399 3 3 0 0 1 -.563-3.1c.2-.508.388-.981.567-1.43 1.4-3.482 2.031-5.072 2.031-10.769a3 3 0 1 1 6 0c0 6.664-.925 9.159-2.338 12.693a76.188 76.188 0 0 1 -45.056 124.644l-12.9 40.2a52.832 52.832 0 0 1 -50.263 36.668z"/></g><path d="m100.179 467.607h282.251v53.256h-282.251z" fill="#82b1ff"/><path d="m443.9 580.535h-280.357a3 3 0 0 1 0-6h280.357a3 3 0 0 1 0 6z" fill="#222433"/><path d="m443.9 654.543h-280.357a3 3 0 0 1 0-6h280.357a3 3 0 0 1 0 6z" fill="#222433"/><path d="m443.9 723.553h-280.357a3 3 0 0 1 0-6h280.357a3 3 0 0 1 0 6z" fill="#222433"/><circle cx="115.557" cy="576.136" fill="#fff" r="13.417"/><path d="m115.557 592.553a16.418 16.418 0 1 1 16.418-16.417 16.435 16.435 0 0 1 -16.418 16.417zm0-26.835a10.418 10.418 0 1 0 10.418 10.418 10.43 10.43 0 0 0 -10.418-10.418z" fill="#222433"/><circle cx="115.557" cy="651.544" fill="#fff" r="13.417"/><path d="m115.557 667.961a16.418 16.418 0 1 1 16.418-16.418 16.436 16.436 0 0 1 -16.418 16.418zm0-26.835a10.418 10.418 0 1 0 10.418 10.417 10.429 10.429 0 0 0 -10.418-10.417z" fill="#222433"/><circle cx="115.557" cy="720.553" fill="#fff" r="13.417"/><path d="m115.557 736.97a16.418 16.418 0 1 1 16.418-16.417 16.435 16.435 0 0 1 -16.418 16.417zm0-26.835a10.418 10.418 0 1 0 10.418 10.418 10.43 10.43 0 0 0 -10.418-10.418z" fill="#222433"/><rect fill="#5a38fd" height="367.094" rx="18.705" transform="matrix(.71339723 -.70075987 .70075987 .71339723 -307.498 626.062)" width="66.549" x="578.348" y="505.406"/><circle cx="435.151" cy="509.302" fill="#5a38fd" r="157.637"/><circle cx="435.151" cy="509.302" fill="#fff" r="115.244"/><path d="m435.18 627.546q-.541 0-1.085 0a118.244 118.244 0 0 1 1.026-236.484h1.085a118.244 118.244 0 0 1 -1.026 236.484zm-.057-230.489a112.244 112.244 0 0 0 -.974 224.484h1.03a112.244 112.244 0 0 0 80.046-190.9 111.51 111.51 0 0 0 -79.072-33.583c-.342-0-.688-.001-1.03-.001z" fill="#222433"/><path d="m470.959 454.328h-133.724c-14.317 24.522-17.191 49.362-12.393 76.075h146.117z" fill="#82b1ff"/><path d="m348.19 586.084h119.091a5.727 5.727 0 0 0 5.71-5.709 5.727 5.727 0 0 0 -5.71-5.71h-125.091c-3.141 0 .29 2.569.29 5.71a5.726 5.726 0 0 0 5.71 5.709z" fill="#222433"/><path d="m435.18 627.546q-.541 0-1.085 0a118.244 118.244 0 0 1 1.026-236.484h1.085a118.244 118.244 0 0 1 -1.026 236.484zm-.057-230.489a112.244 112.244 0 0 0 -.974 224.484h1.03a112.244 112.244 0 0 0 80.046-190.9 111.51 111.51 0 0 0 -79.072-33.583c-.342-0-.688-.001-1.03-.001z" fill="#222433"/></svg></g><!--ITEM: Illustration component 6--><g transform="translate(703.125 389.0625) rotate(0.0 35.9375 35.9375)  scale(1.0670912762040503 1.0667111902641735)"><svg width="67.356" height="67.38" viewBox="0.0 0.0 67.356 67.38"><path d="m35.808 1.595 5.44 18c.95 3.128 3.4 5.575 6.53 6.52l18 5.45c1.174.355 1.837 1.594 1.483 2.767-.215.711-.771 1.268-1.483 1.483l-18 5.45c-3.13.945-5.58 3.392-6.53 6.52l-5.44 18c-.346 1.176-1.579 1.85-2.756 1.504-.725-.213-1.291-.78-1.504-1.504l-5.45-18c-.943-3.129-3.391-5.577-6.52-6.52l-18-5.45c-1.174-.355-1.837-1.594-1.483-2.767.215-.711.771-1.268 1.483-1.483l18-5.45c3.129-.943 5.577-3.391 6.52-6.52l5.45-18c.346-1.176 1.579-1.85 2.756-1.504.724.212 1.291.779 1.504 1.504z" fill="#82b1ff"/></svg></g><!--ITEM: Illustration component 7--><g transform="translate(2231.25 298.4375) rotate(0.0 57.03125 57.03125)  scale(1.6934274600629493 1.6928242802018405)"><svg width="67.356" height="67.38" viewBox="0.0 0.0 67.356 67.38"><path d="m35.808 1.595 5.44 18c.95 3.128 3.4 5.575 6.53 6.52l18 5.45c1.174.355 1.837 1.594 1.483 2.767-.215.711-.771 1.268-1.483 1.483l-18 5.45c-3.13.945-5.58 3.392-6.53 6.52l-5.44 18c-.346 1.176-1.579 1.85-2.756 1.504-.725-.213-1.291-.78-1.504-1.504l-5.45-18c-.943-3.129-3.391-5.577-6.52-6.52l-18-5.45c-1.174-.355-1.837-1.594-1.483-2.767.215-.711.771-1.268 1.483-1.483l18-5.45c3.129-.943 5.577-3.391 6.52-6.52l5.45-18c.346-1.176 1.579-1.85 2.756-1.504.724.212 1.291.779 1.504 1.504z" fill="rgb(90,56,253)"/></svg></g><!--ITEM: Illustration component 8--><g transform="translate(2484.375 1432.8125) rotate(0.0 25.78125 25.78125)  scale(0.76552200249421 0.7652493321460374)"><svg width="67.356" height="67.38" viewBox="0.0 0.0 67.356 67.38"><path d="m35.808 1.595 5.44 18c.95 3.128 3.4 5.575 6.53 6.52l18 5.45c1.174.355 1.837 1.594 1.483 2.767-.215.711-.771 1.268-1.483 1.483l-18 5.45c-3.13.945-5.58 3.392-6.53 6.52l-5.44 18c-.346 1.176-1.579 1.85-2.756 1.504-.725-.213-1.291-.78-1.504-1.504l-5.45-18c-.943-3.129-3.391-5.577-6.52-6.52l-18-5.45c-1.174-.355-1.837-1.594-1.483-2.767.215-.711.771-1.268 1.483-1.483l18-5.45c3.129-.943 5.577-3.391 6.52-6.52l5.45-18c.346-1.176 1.579-1.85 2.756-1.504.724.212 1.291.779 1.504 1.504z" fill="#82b1ff"/></svg></g><!--ITEM: Illustration component 9--><g transform="translate(1600.0 62.5) rotate(0.0 288.28125 214.0625)  scale(1.5606306267289587 1.5616792634527839)"><svg width="369.442" height="274.144" viewBox="0.0 0.0 369.442 274.144"><g fill="#82b1ff"><rect height="201.286" rx="26.406" transform="matrix(.76036062 -.64950113 .64950113 .76036062 -93.3 101.624)" width="96.146" x="42.994" y="76.606"/><rect height="342.198" rx="26.406" transform="matrix(-.64950113 -.76036062 .76036062 -.64950113 257.16 392.199)" width="96.146" x="170.902" y="-34.27"/></g></svg></g></svg>